Fly_normalized_Motion_pl10
version=1
nRows=14
nColumns=43
inDegrees=yes
endheader
time		pelvis_tilt		pelvis_list		pelvis_rotation		pelvis_tx		pelvis_ty		pelvis_tz		hip_flexion_r		hip_adduction_r		hip_rotation_r		knee_angle_r		ankle_angle_r		subtalar_angle_r		mtp_angle_r		hip_flexion_l		hip_adduction_l		hip_rotation_l		knee_angle_l		ankle_angle_l		subtalar_angle_l		mtp_angle_l		lumbar_extension		lumbar_bending		lumbar_rotation		neck_flexion		neck_lateral_bending		neck_rotation		arm_flex_r		arm_add_r		arm_rot_r		elbow_flex_r		pro_sup_r		wrist_flex_r		wrist_dev_r		hand_finger_flex_r		arm_flex_l		arm_add_l		arm_rot_l		elbow_flex_l		pro_sup_l		wrist_flex_l		wrist_dev_l		hand_finger_flex_l		
0.455000		1.509915		-0.264370		83.666565		0.034508		1.468559		0.951162		39.118342		0.786035		-3.325942		-49.657838		-20.009259		-0.259224		0.398468		43.374968		-10.075393		-3.094530		-41.589031		-25.959109		0.352665		14.526734		-42.199682		-1.920487		6.853229		9.377786		3.995490		-2.870099		-13.896392		-37.901323		-17.309795		41.307859		96.450938		16.874726		6.234577		-10.420473		-13.554728		-35.731631		5.550656		50.326299		122.198114		-21.686586		-5.352357		-3.945761		
0.459167		1.558763		0.241162		83.707041		0.034011		1.457567		0.940223		37.997128		0.679288		-3.578789		-47.957735		-19.820100		-0.410319		-0.892069		42.162342		-10.164040		-3.585653		-40.346115		-26.199196		0.988412		14.496074		-42.180537		-1.765935		7.154270		8.466566		3.698659		-3.238019		-17.425299		-37.047948		-19.456247		41.444830		97.133136		16.695753		5.705411		-10.226191		-15.811470		-35.259809		5.301562		49.586655		122.727457		-21.598125		-5.739159		-5.212726		
0.463333		1.479330		0.413411		83.829468		0.033308		1.445499		0.929420		37.323135		0.441603		-3.814846		-46.351959		-19.786582		-0.483824		-1.168130		41.419979		-10.099131		-4.060857		-39.223269		-26.565295		1.406893		14.412871		-41.720248		-1.653756		7.102792		7.345210		3.553061		-3.173443		-20.491597		-36.417602		-20.411631		41.215978		96.957954		16.410368		5.038258		-10.319696		-18.535974		-34.733031		4.779358		49.136777		122.682019		-22.143810		-5.830200		-5.725116		
0.467500		1.449586		0.739157		83.934369		0.032209		1.433547		0.918478		36.461695		0.198342		-4.091053		-44.748736		-19.812766		-0.486686		-1.577993		40.500113		-10.065781		-4.630170		-38.112846		-26.930300		1.873497		14.314653		-41.409668		-1.457340		7.126111		6.135488		3.346543		-3.201316		-23.624942		-35.782950		-21.502888		41.129093		96.935656		16.100488		4.355583		-10.399242		-21.173628		-34.115263		4.301343		48.701337		122.808369		-22.554868		-6.037139		-6.374670		
0.471667		1.477783		1.368009		84.032176		0.031387		1.422160		0.907301		35.139413		-0.005011		-4.458308		-42.961038		-19.792407		-0.383093		-2.357452		39.165016		-10.089968		-5.277789		-36.919621		-27.213110		2.373666		14.206781		-41.454621		-1.253174		7.255328		5.076629		3.007005		-3.313354		-26.758381		-34.903246		-22.927661		41.184613		97.382569		15.912711		3.668406		-10.378211		-23.652407		-33.478715		3.700341		48.282516		123.244521		-22.597869		-6.309321		-7.517319		
0.475833		1.457396		1.639089		84.129610		0.030564		1.409803		0.896237		34.278987		-0.183985		-4.739580		-41.267993		-19.870125		-0.325573		-2.853319		38.242268		-10.075611		-5.892953		-35.729477		-27.585885		2.663698		14.107226		-41.043421		-1.058367		7.242395		3.766997		2.752980		-3.262887		-29.635705		-34.096669		-23.955575		41.100499		97.512883		15.874458		3.084335		-10.341495		-26.290149		-32.818065		3.144597		47.959478		123.312793		-22.864431		-6.324171		-8.300726		
0.480000		1.425295		1.838112		84.225165		0.029846		1.397102		0.885176		33.495907		-0.357795		-5.045254		-39.572300		-20.017257		-0.235589		-3.139400		37.420097		-10.060208		-6.541780		-34.579462		-27.960377		2.890630		14.030705		-40.533373		-0.882342		7.232022		2.427742		2.534998		-3.148789		-32.439382		-33.232754		-24.812003		40.985877		97.419314		15.774613		2.458987		-10.357293		-28.957649		-32.147376		2.549219		47.761636		123.191673		-23.330188		-6.381327		-8.826986		
0.484167		1.527584		2.594499		84.321841		0.029311		1.385583		0.873808		31.912669		-0.452554		-5.496489		-37.625400		-20.026835		0.029629		-4.006475		35.841321		-10.145054		-7.315532		-33.238679		-28.118198		3.302576		14.042390		-40.714830		-0.645904		7.298609		1.435425		2.233454		-3.175129		-35.112063		-32.112345		-26.253624		41.011850		98.070983		15.736886		1.738805		-10.217027		-31.476574		-31.420824		1.724602		47.564204		123.387273		-23.214561		-6.741422		-10.048831		
0.488333		1.550615		2.866146		84.411353		0.028674		1.372779		0.862606		30.958804		-0.574164		-5.936547		-35.813487		-20.144798		0.264883		-4.391746		34.889529		-10.155269		-7.972155		-32.030049		-28.325353		3.559652		14.038443		-40.264159		-0.439969		7.292835		0.031239		2.007864		-3.138329		-37.640420		-31.097307		-27.250814		40.888296		98.065585		15.641720		1.143456		-10.155336		-34.093847		-30.661905		1.025746		47.462651		123.218045		-23.545381		-6.842428		-10.683287		
0.492500		1.597339		3.279511		84.548031		0.028028		1.360147		0.851277		29.796924		-0.695107		-6.431362		-33.946168		-20.249920		0.572918		-4.881105		33.750310		-10.160136		-8.698552		-30.778756		-28.397473		3.886303		14.088834		-39.971992		-0.199734		7.252319		-1.319940		1.747693		-3.166627		-40.067787		-30.006815		-28.331471		40.805015		98.201063		15.534120		0.544037		-10.051608		-36.683135		-29.918392		0.289422		47.441800		123.109165		-23.723273		-7.095871		-11.437434		
0.496667		1.632266		3.799469		84.687678		0.027344		1.347631		0.839762		28.461357		-0.845340		-7.004885		-32.025768		-20.227985		1.057667		-5.406086		32.435141		-10.139839		-9.499571		-29.460612		-28.313501		4.418083		14.250227		-39.785521		0.018385		7.196564		-2.629411		1.503878		-3.279430		-42.294546		-28.786706		-29.578318		40.639543		98.351936		15.348026		-0.080150		-9.949877		-39.205853		-29.042984		-0.695969		47.438956		122.942551		-23.753902		-7.418496		-12.339777		
0.500833		1.559131		3.915025		84.825924		0.026559		1.334048		0.828357		27.683262		-1.043421		-7.481120		-30.266453		-20.370219		1.368488		-5.563477		31.638153		-10.016896		-10.267563		-28.247781		-28.251125		4.741912		14.313581		-39.096840		0.179836		7.093281		-4.190881		1.309278		-3.338347		-44.446901		-27.619986		-30.542429		40.377319		98.033672		15.146696		-0.651900		-9.986772		-41.727930		-28.215879		-1.477873		47.500232		122.683638		-24.174599		-7.565527		-12.780447		
0.505000		1.499125		4.526030		84.923193		0.025932		1.321459		0.816595		26.215549		-1.314847		-8.248293		-28.330241		-20.185298		2.309019		-5.628659		30.102323		-9.935090		-11.297945		-26.789071		-27.857692		5.845434		14.617338		-39.009636		0.248468		6.995804		-5.352578		1.205094		-3.490256		-46.232075		-26.260498		-31.884640		39.955170		97.849454		14.900001		-1.113512		-9.964184		-44.134383		-27.224646		-2.758213		47.536580		122.461529		-24.002973		-8.097775		-13.393556		
0.509167		1.366812		4.560557		85.052283		0.025086		1.307460		0.805181		25.532707		-1.523135		-8.714627		-26.567711		-20.370381		2.598446		-5.628111		29.397546		-9.721020		-12.093287		-25.604161		-27.701616		6.115187		14.714986		-38.259881		0.355807		6.866413		-6.859951		1.003217		-3.459845		-48.072133		-25.037257		-32.877400		39.625648		97.447621		14.693619		-1.591425		-9.986080		-46.486509		-26.369475		-3.521003		47.666030		122.264107		-24.412728		-8.212884		-13.766562		
